<mxfile host="app.diagrams.net" modified="2021-01-06T06:21:30.031Z" agent="5.0 (Windows NT 10.0; Win64; x64) AppleWebKit/537.36 (KHTML, like Gecko) Chrome/87.0.4280.88 Safari/537.36" etag="ZAZZvpvuWaZlE0AbFIAr" version="14.1.8" type="github">
  <diagram id="NkcOQIzmSUUsyz15_AYU" name="Page-1">
    <mxGraphModel dx="807" dy="705" grid="1" gridSize="10" guides="1" tooltips="1" connect="1" arrows="1" fold="1" page="1" pageScale="1" pageWidth="827" pageHeight="1169" math="0" shadow="0">
      <root>
        <mxCell id="0" />
        <mxCell id="1" parent="0" />
        <mxCell id="0U-e_637YnTidJNfVNbS-1" value="继承树关系" style="text;html=1;strokeColor=#6c8ebf;fillColor=#dae8fc;align=center;verticalAlign=middle;whiteSpace=wrap;rounded=0;" vertex="1" parent="1">
          <mxGeometry x="190" y="90" width="80" height="27.5" as="geometry" />
        </mxCell>
        <mxCell id="0U-e_637YnTidJNfVNbS-7" value="GenericServlet" style="rounded=0;whiteSpace=wrap;html=1;" vertex="1" parent="1">
          <mxGeometry x="330" y="75" width="120" height="35" as="geometry" />
        </mxCell>
        <mxCell id="0U-e_637YnTidJNfVNbS-14" value="" style="edgeStyle=orthogonalEdgeStyle;rounded=0;orthogonalLoop=1;jettySize=auto;html=1;" edge="1" parent="1" source="0U-e_637YnTidJNfVNbS-9" target="0U-e_637YnTidJNfVNbS-7">
          <mxGeometry relative="1" as="geometry" />
        </mxCell>
        <mxCell id="0U-e_637YnTidJNfVNbS-9" value="HttpServlet" style="rounded=0;whiteSpace=wrap;html=1;fillColor=#dae8fc;strokeColor=#6c8ebf;" vertex="1" parent="1">
          <mxGeometry x="330" y="130" width="120" height="35" as="geometry" />
        </mxCell>
        <mxCell id="0U-e_637YnTidJNfVNbS-15" value="" style="edgeStyle=orthogonalEdgeStyle;rounded=0;orthogonalLoop=1;jettySize=auto;html=1;" edge="1" parent="1" source="0U-e_637YnTidJNfVNbS-11" target="0U-e_637YnTidJNfVNbS-9">
          <mxGeometry relative="1" as="geometry" />
        </mxCell>
        <mxCell id="0U-e_637YnTidJNfVNbS-11" value="HttpServletBean" style="rounded=0;whiteSpace=wrap;html=1;fillColor=#dae8fc;strokeColor=#6c8ebf;" vertex="1" parent="1">
          <mxGeometry x="330" y="190" width="120" height="35" as="geometry" />
        </mxCell>
        <mxCell id="0U-e_637YnTidJNfVNbS-16" value="" style="edgeStyle=orthogonalEdgeStyle;rounded=0;orthogonalLoop=1;jettySize=auto;html=1;" edge="1" parent="1" source="0U-e_637YnTidJNfVNbS-13" target="0U-e_637YnTidJNfVNbS-11">
          <mxGeometry relative="1" as="geometry" />
        </mxCell>
        <mxCell id="0U-e_637YnTidJNfVNbS-13" value="HttpServletBean" style="rounded=0;whiteSpace=wrap;html=1;fillColor=#dae8fc;strokeColor=#6c8ebf;" vertex="1" parent="1">
          <mxGeometry x="330" y="250" width="120" height="35" as="geometry" />
        </mxCell>
        <mxCell id="0U-e_637YnTidJNfVNbS-19" value="" style="edgeStyle=orthogonalEdgeStyle;rounded=0;orthogonalLoop=1;jettySize=auto;html=1;" edge="1" parent="1" source="0U-e_637YnTidJNfVNbS-18" target="0U-e_637YnTidJNfVNbS-13">
          <mxGeometry relative="1" as="geometry" />
        </mxCell>
        <mxCell id="0U-e_637YnTidJNfVNbS-18" value="FrameworkServlet" style="rounded=0;whiteSpace=wrap;html=1;fillColor=#dae8fc;strokeColor=#6c8ebf;" vertex="1" parent="1">
          <mxGeometry x="330" y="310" width="120" height="35" as="geometry" />
        </mxCell>
        <mxCell id="0U-e_637YnTidJNfVNbS-21" value="" style="edgeStyle=orthogonalEdgeStyle;rounded=0;orthogonalLoop=1;jettySize=auto;html=1;" edge="1" parent="1" source="0U-e_637YnTidJNfVNbS-20" target="0U-e_637YnTidJNfVNbS-18">
          <mxGeometry relative="1" as="geometry" />
        </mxCell>
        <mxCell id="0U-e_637YnTidJNfVNbS-20" value="DispatcherServlet" style="rounded=0;whiteSpace=wrap;html=1;fillColor=#fff2cc;strokeColor=#d6b656;" vertex="1" parent="1">
          <mxGeometry x="330" y="370" width="120" height="35" as="geometry" />
        </mxCell>
        <mxCell id="0U-e_637YnTidJNfVNbS-23" value="请求映射源码" style="text;html=1;strokeColor=#2D7600;fillColor=#60a917;align=center;verticalAlign=middle;whiteSpace=wrap;rounded=0;fontColor=#ffffff;fontSize=28;" vertex="1" parent="1">
          <mxGeometry x="200" y="20" width="410" height="30" as="geometry" />
        </mxCell>
      </root>
    </mxGraphModel>
  </diagram>
</mxfile>
